<svg xmlns="http://www.w3.org/2000/svg" viewBox="0 0 24 24">
  <circle cx="12" cy="12" r="11" fill="#181717"/>
  <path fill="#fff" d="M12 5.2a7 7 0 0 0-2.2 13.6c.4.1.5-.2.5-.4v-1.5c-2.2.5-2.7-1-2.7-1-.4-.9-.9-1.1-.9-1.1-.7-.5.1-.5.1-.5.8.1 1.2.8 1.2.8.7 1.2 1.9.9 2.3.7.1-.5.3-.9.5-1.1-1.8-.2-3.7-.9-3.7-4a3.1 3.1 0 0 1 .8-2.2c-.1-.2-.4-1 .1-2.2 0 0 .7-.2 2.3.8a7.7 7.7 0 0 1 4.2 0c1.6-1 2.3-.8 2.3-.8.5 1.2.2 2 .1 2.2.5.6.8 1.4.8 2.2 0 3.1-1.9 3.8-3.7 4 .3.3.6.8.6 1.6v2.1c0 .2.1.5.6.4A7 7 0 0 0 12 5.2Z"/>
</svg>
