<svg xmlns="http://www.w3.org/2000/svg" viewBox="0 0 64 72" role="img" aria-labelledby="title">
  <title id="title">Documento PDF</title>
  <path fill="#fff" stroke="#ef4444" stroke-width="3" d="M11 2h28l14 14v52a2 2 0 0 1-2 2H11a2 2 0 0 1-2-2V4a2 2 0 0 1 2-2Z"/>
  <path fill="#fecaca" d="M39 2v14h14Z"/>
  <path fill="#dc2626" d="M5 38a4 4 0 0 1 4-4h46a4 4 0 0 1 4 4v18a4 4 0 0 1-4 4H9a4 4 0 0 1-4-4Z"/>
  <text x="32" y="52" fill="#fff" font-family="Arial,sans-serif" font-size="17" font-weight="700" text-anchor="middle">PDF</text>
</svg>
